<?xml version="1.0" standalone="no"?>
<!DOCTYPE svg PUBLIC "-//W3C//DTD SVG 20010904//EN"
 "http://www.w3.org/TR/2001/REC-SVG-20010904/DTD/svg10.dtd">
<svg version="1.0" xmlns="http://www.w3.org/2000/svg"
 width="800.000000pt" height="177.000000pt" viewBox="0 0 800.000000 177.000000"
 preserveAspectRatio="xMidYMid meet">

<g transform="translate(0.000000,177.000000) scale(0.100000,-0.100000)"
fill="#000000" stroke="none">
<path d="M5870 1240 c-167 -5 -225 -10 -259 -23 -110 -43 -156 -94 -196 -220
-15 -45 -46 -137 -71 -205 -54 -150 -56 -192 -13 -233 17 -16 47 -33 67 -38
44 -11 237 -15 669 -13 l321 2 31 93 c17 50 31 98 31 106 0 12 -53 13 -339 6
-186 -4 -341 -3 -344 2 -3 4 1 23 8 40 l14 33 303 2 303 3 27 75 c15 41 27 80
27 85 1 7 -103 9 -299 7 -165 -2 -300 -1 -300 3 0 3 7 21 14 40 l15 35 325 0
324 0 32 93 c17 50 34 98 37 105 5 13 -299 14 -727 2z"/>
<path d="M4640 1230 l-325 -5 -53 -30 c-110 -60 -184 -165 -185 -260 -1 -67
22 -108 76 -134 41 -20 59 -21 325 -21 267 0 282 -1 282 -18 0 -11 -8 -26 -18
-35 -16 -15 -52 -17 -288 -18 -148 -1 -307 -4 -353 -7 l-83 -7 -29 -78 c-15
-43 -31 -87 -34 -98 -6 -19 0 -20 497 -17 l503 3 56 28 c189 92 262 317 130
399 -35 23 -40 23 -306 20 -148 -1 -280 0 -292 3 -14 3 -23 13 -23 24 0 44 14
46 388 51 l355 5 33 95 c18 52 33 98 34 103 0 7 -114 7 -690 -3z"/>
<path d="M312 1217 c-12 -14 -173 -429 -169 -433 2 -2 122 60 268 137 489 261
551 296 534 303 -9 3 -153 6 -320 6 -234 0 -305 -3 -313 -13z"/>
<path d="M1065 1154 c-77 -41 -187 -100 -245 -130 -58 -31 -241 -128 -407
-217 l-302 -162 -26 -68 c-14 -37 -25 -70 -25 -73 0 -2 84 -4 188 -4 l187 0
23 63 c62 167 105 266 112 262 4 -3 61 -77 126 -165 l119 -160 187 0 188 0
-76 118 c-130 198 -154 239 -154 253 0 8 19 25 43 38 191 107 515 296 527 307
12 12 -12 14 -155 13 l-170 0 -140 -75z"/>
<path d="M1576 1138 c-20 -51 -36 -99 -36 -105 0 -10 76 -13 349 -13 370 0
368 0 350 -47 -8 -21 -11 -21 -316 -25 l-308 -3 -54 -28 c-74 -39 -146 -109
-177 -173 -22 -46 -26 -64 -22 -116 4 -57 8 -64 43 -95 l39 -33 529 2 530 3
94 250 c108 286 119 340 81 394 -47 70 -30 68 -575 75 l-491 7 -36 -93z m584
-367 c0 -4 -5 -22 -11 -40 l-11 -31 -156 2 c-138 3 -157 5 -160 20 -2 9 6 26
17 37 19 19 33 21 171 21 83 0 150 -4 150 -9z"/>
<path d="M3110 1223 l-215 -3 -129 -348 c-71 -191 -131 -353 -134 -359 -3 -10
44 -13 215 -13 l219 0 29 84 29 84 296 4 295 3 67 33 c93 46 157 118 199 225
43 110 47 161 20 216 -16 31 -34 48 -64 62 -44 20 -130 21 -827 12z m450 -228
c0 -38 -25 -92 -48 -104 -24 -13 -302 -15 -302 -3 0 4 9 36 21 70 l21 62 154
0 154 0 0 -25z"/>
<path d="M7551 1198 c-55 -138 -134 -325 -140 -331 -5 -5 -51 71 -102 167
l-94 176 -215 0 -215 0 -133 -328 c-73 -180 -135 -337 -139 -350 l-5 -22 208
2 209 3 46 110 c88 210 104 245 109 245 3 0 39 -57 80 -127 40 -71 87 -152
104 -180 l31 -53 200 3 200 2 42 105 c94 235 223 574 223 587 0 10 -41 13
-200 13 -199 0 -201 0 -209 -22z"/>
</g>
</svg>
